<?xml version="1.0" encoding="utf-8"?>
<!-- Generator: Adobe Illustrator 20.1.0, SVG Export Plug-In . SVG Version: 6.00 Build 0)  -->
<svg version="1.1" id="Livello_1" xmlns="http://www.w3.org/2000/svg" xmlns:xlink="http://www.w3.org/1999/xlink" x="0px" y="0px"
	 viewBox="0 0 117.6 102.4" style="enable-background:new 0 0 117.6 102.4;" xml:space="preserve">
<style type="text/css">
	.st0{display:none;}
	.st1{display:inline;fill:#E91D26;}
	.st2{fill:#E91D26;}
	.st3{fill-rule:evenodd;clip-rule:evenodd;fill:#E91D26;}
</style>
<g class="st0">
	<path class="st1" d="M-292.7,47.8c-1,0-1.7,0.4-2.2,1.1c-0.5,0.7-0.8,1.7-0.8,3c0,2.7,1,4.1,3,4.1c0.9,0,1.9-0.2,3.1-0.6v2.2
		c-1,0.4-2.1,0.6-3.3,0.6c-1.8,0-3.1-0.5-4.1-1.6c-0.9-1.1-1.4-2.6-1.4-4.6c0-1.3,0.2-2.4,0.7-3.3c0.5-0.9,1.1-1.7,2-2.2
		c0.9-0.5,1.9-0.8,3-0.8c1.2,0,2.4,0.3,3.6,0.9l-0.8,2.1c-0.5-0.2-0.9-0.4-1.4-0.6C-291.8,47.8-292.3,47.8-292.7,47.8z"/>
	<path class="st1" d="M-276,51.8c0,2-0.5,3.6-1.5,4.6c-1,1.1-2.4,1.6-4.3,1.6s-3.3-0.5-4.3-1.6c-1-1.1-1.5-2.6-1.5-4.6
		c0-2,0.5-3.6,1.5-4.6c1-1.1,2.4-1.6,4.3-1.6c1.9,0,3.3,0.5,4.3,1.6C-276.5,48.3-276,49.8-276,51.8z M-284.9,51.8
		c0,1.4,0.3,2.4,0.8,3.1c0.5,0.7,1.3,1,2.3,1c2.1,0,3.1-1.4,3.1-4.1c0-2.7-1-4.1-3.1-4.1c-1,0-1.8,0.3-2.3,1
		C-284.6,49.5-284.9,50.5-284.9,51.8z"/>
	<path class="st1" d="M-268.4,57.9l-2.9-9.5h-0.1c0.1,1.9,0.2,3.2,0.2,3.9v5.6h-2.3V45.8h3.5l2.9,9.3h0l3-9.3h3.5v12.1h-2.4v-5.7
		c0-0.3,0-0.6,0-0.9c0-0.4,0-1.3,0.1-2.8h-0.1l-3.1,9.5H-268.4z"/>
	<path class="st1" d="M-252.4,57.9l-2.9-9.5h-0.1c0.1,1.9,0.2,3.2,0.2,3.9v5.6h-2.3V45.8h3.5l2.9,9.3h0l3-9.3h3.5v12.1h-2.4v-5.7
		c0-0.3,0-0.6,0-0.9c0-0.4,0-1.3,0.1-2.8h-0.1l-3.1,9.5H-252.4z"/>
	<path class="st1" d="M-241.5,57.9V45.8h2.6v12.1H-241.5z"/>
	<path class="st1" d="M-231.2,57.9h-2.6v-10h-3.3v-2.1h9.2v2.1h-3.3V57.9z"/>
	<path class="st1" d="M-221.3,57.9h-2.6v-10h-3.3v-2.1h9.2v2.1h-3.3V57.9z"/>
	<path class="st1" d="M-209.2,57.9h-7V45.8h7v2.1h-4.4v2.7h4.1v2.1h-4.1v3.1h4.4V57.9z"/>
	<path class="st1" d="M-199.6,57.9h-7V45.8h7v2.1h-4.4v2.7h4.1v2.1h-4.1v3.1h4.4V57.9z"/>
	<path class="st1" d="M-288.8,71c0.2,0,0.5,0,0.7-0.1c0.2,0,0.4-0.1,0.5-0.1v1.1c-0.1,0.1-0.4,0.1-0.7,0.2c-0.3,0-0.6,0.1-0.8,0.1
		c-1.8,0-2.6-0.9-2.6-2.8v-5.4h-1.3v-0.7l1.3-0.6l0.6-1.9h0.8v2.1h2.6v1.1h-2.6v5.4c0,0.5,0.1,1,0.4,1.3
		C-289.6,70.8-289.3,71-288.8,71z"/>
	<path class="st1" d="M-277.9,67.4c0,1.5-0.4,2.6-1.1,3.5c-0.7,0.8-1.8,1.2-3.1,1.2c-0.8,0-1.5-0.2-2.2-0.6
		c-0.6-0.4-1.1-0.9-1.5-1.6c-0.3-0.7-0.5-1.5-0.5-2.5c0-1.5,0.4-2.6,1.1-3.5c0.7-0.8,1.8-1.2,3.1-1.2c1.3,0,2.3,0.4,3,1.3
		C-278.3,64.8-277.9,65.9-277.9,67.4z M-284.9,67.4c0,1.2,0.2,2,0.7,2.7c0.5,0.6,1.1,0.9,2,0.9c0.9,0,1.6-0.3,2.1-0.9
		c0.5-0.6,0.7-1.5,0.7-2.7c0-1.2-0.2-2-0.7-2.6c-0.5-0.6-1.2-0.9-2.1-0.9c-0.9,0-1.6,0.3-2,0.9C-284.6,65.3-284.9,66.2-284.9,67.4z"
		/>
	<path class="st1" d="M-268.4,67.3v4.7h-2.6V59.8h3.5c1.6,0,2.9,0.3,3.7,0.9c0.8,0.6,1.2,1.5,1.2,2.7c0,0.7-0.2,1.3-0.6,1.9
		c-0.4,0.6-0.9,1-1.7,1.3c1.8,2.7,3,4.5,3.6,5.3h-2.9l-2.9-4.7H-268.4z M-268.4,65.2h0.8c0.8,0,1.4-0.1,1.8-0.4
		c0.4-0.3,0.6-0.7,0.6-1.3c0-0.6-0.2-1-0.6-1.2c-0.4-0.2-1-0.4-1.8-0.4h-0.8V65.2z"/>
	<path class="st1" d="M-252.8,71.9h-7V59.8h7v2.1h-4.4v2.7h4.1v2.1h-4.1v3.1h4.4V71.9z"/>
	<path class="st1" d="M-243.1,68.6c0,1.1-0.4,2-1.2,2.6c-0.8,0.6-1.9,0.9-3.3,0.9c-1.3,0-2.4-0.2-3.4-0.7V69
		c0.8,0.4,1.5,0.6,2.1,0.8c0.6,0.2,1.1,0.2,1.6,0.2c0.6,0,1-0.1,1.3-0.3c0.3-0.2,0.5-0.5,0.5-1c0-0.2-0.1-0.4-0.2-0.6
		c-0.1-0.2-0.3-0.4-0.6-0.5c-0.3-0.2-0.8-0.4-1.6-0.8c-0.7-0.3-1.3-0.7-1.7-1c-0.4-0.3-0.7-0.7-0.9-1.1c-0.2-0.4-0.3-0.9-0.3-1.5
		c0-1.1,0.4-1.9,1.1-2.5c0.7-0.6,1.7-0.9,3-0.9c0.6,0,1.2,0.1,1.8,0.2c0.6,0.1,1.2,0.4,1.8,0.6l-0.8,2c-0.6-0.3-1.2-0.5-1.6-0.6
		c-0.4-0.1-0.8-0.2-1.2-0.2c-0.5,0-0.9,0.1-1.1,0.3c-0.3,0.2-0.4,0.5-0.4,0.9c0,0.2,0.1,0.4,0.2,0.6c0.1,0.2,0.3,0.3,0.5,0.5
		c0.2,0.2,0.8,0.4,1.6,0.9c1.1,0.5,1.9,1.1,2.3,1.6C-243.3,67.1-243.1,67.8-243.1,68.6z"/>
	<path class="st1" d="M-235.8,61.8c-1,0-1.7,0.4-2.3,1.1c-0.5,0.7-0.8,1.7-0.8,3c0,2.7,1,4.1,3,4.1c0.9,0,1.9-0.2,3.1-0.6v2.2
		c-1,0.4-2.1,0.6-3.3,0.6c-1.8,0-3.1-0.5-4.1-1.6c-0.9-1.1-1.4-2.6-1.4-4.6c0-1.3,0.2-2.4,0.7-3.3c0.5-0.9,1.1-1.7,2-2.2
		c0.9-0.5,1.9-0.8,3-0.8c1.2,0,2.4,0.3,3.6,0.9l-0.8,2.1c-0.5-0.2-0.9-0.4-1.4-0.6C-234.9,61.8-235.3,61.8-235.8,61.8z"/>
	<path class="st1" d="M-220.2,59.8v7.9c0,0.9-0.2,1.7-0.6,2.4c-0.4,0.7-1,1.2-1.7,1.6c-0.8,0.4-1.7,0.5-2.7,0.5
		c-1.6,0-2.8-0.4-3.6-1.2c-0.9-0.8-1.3-1.9-1.3-3.3v-7.8h2.6v7.4c0,0.9,0.2,1.6,0.6,2.1c0.4,0.4,1,0.7,1.9,0.7
		c0.8,0,1.5-0.2,1.8-0.7c0.4-0.4,0.6-1.1,0.6-2.1v-7.4H-220.2z"/>
	<path class="st1" d="M-210.2,71.9h-7V59.8h7v2.1h-4.4v2.7h4.1v2.1h-4.1v3.1h4.4V71.9z"/>
	<path class="st1" d="M-281.5,85.9V73.8h2.6v12.1H-281.5z"/>
	<path class="st1" d="M-271.2,85.9h-2.6v-10h-3.3v-2.1h9.2v2.1h-3.3V85.9z"/>
	<path class="st1" d="M-258.6,85.9l-0.9-2.9h-4.4l-0.9,2.9h-2.8l4.3-12.2h3.1l4.3,12.2H-258.6z M-260.1,80.9
		c-0.8-2.6-1.3-4.1-1.4-4.4c-0.1-0.3-0.2-0.6-0.2-0.8c-0.2,0.7-0.7,2.5-1.6,5.3H-260.1z"/>
	<path class="st1" d="M-254.3,85.9V73.8h2.6v10h4.9v2.1H-254.3z"/>
	<path class="st1" d="M-244.7,85.9V73.8h2.6v12.1H-244.7z"/>
	<path class="st1" d="M-231.6,85.9l-0.9-2.9h-4.4l-0.9,2.9h-2.8l4.3-12.2h3.1l4.3,12.2H-231.6z M-233.1,80.9
		c-0.8-2.6-1.3-4.1-1.4-4.4c-0.1-0.3-0.2-0.6-0.2-0.8c-0.2,0.7-0.7,2.5-1.6,5.3H-233.1z"/>
	<path class="st1" d="M-216.6,85.9h-3.3l-5.3-9.2h-0.1c0.1,1.6,0.2,2.8,0.2,3.5v5.7h-2.3V73.8h3.2l5.3,9.1h0.1
		c-0.1-1.6-0.1-2.7-0.1-3.3v-5.7h2.3V85.9z"/>
	<path class="st1" d="M-256.5,99.9l-0.9-2.9h-4.4l-0.9,2.9h-2.8l4.3-12.2h3.1l4.3,12.2H-256.5z M-258,94.9c-0.8-2.6-1.3-4.1-1.4-4.4
		c-0.1-0.3-0.2-0.6-0.2-0.8c-0.2,0.7-0.7,2.5-1.6,5.3H-258z"/>
	<path class="st1" d="M-249.6,95.3v4.7h-2.6V87.8h3.5c1.6,0,2.9,0.3,3.7,0.9c0.8,0.6,1.2,1.5,1.2,2.7c0,0.7-0.2,1.3-0.6,1.9
		c-0.4,0.6-0.9,1-1.7,1.3c1.8,2.7,3,4.5,3.6,5.3h-2.9l-2.9-4.7H-249.6z M-249.6,93.2h0.8c0.8,0,1.4-0.1,1.8-0.4
		c0.4-0.3,0.6-0.7,0.6-1.3c0-0.6-0.2-1-0.6-1.2c-0.4-0.2-1-0.4-1.8-0.4h-0.8V93.2z"/>
	<path class="st1" d="M-236.3,99.9h-2.6v-10h-3.3v-2.1h9.2v2.1h-3.3V99.9z"/>
</g>
<path class="st2" d="M15.5,48.2c-1,0-1.7,0.4-2.3,1.1c-0.5,0.7-0.8,1.7-0.8,3c0,2.7,1,4.1,3,4.1c0.9,0,1.9-0.2,3.1-0.6v2.2
	c-1,0.4-2.1,0.6-3.3,0.6c-1.8,0-3.1-0.5-4.1-1.6c-0.9-1.1-1.4-2.6-1.4-4.6c0-1.3,0.2-2.4,0.7-3.3c0.5-0.9,1.1-1.7,2-2.2
	c0.9-0.5,1.9-0.8,3-0.8c1.2,0,2.4,0.3,3.6,0.9L18.2,49c-0.5-0.2-0.9-0.4-1.4-0.6C16.4,48.3,15.9,48.2,15.5,48.2z"/>
<path class="st2" d="M32.2,52.3c0,2-0.5,3.6-1.5,4.6c-1,1.1-2.4,1.6-4.3,1.6c-1.9,0-3.3-0.5-4.3-1.6c-1-1.1-1.5-2.6-1.5-4.6
	s0.5-3.6,1.5-4.6c1-1.1,2.4-1.6,4.3-1.6c1.9,0,3.3,0.5,4.3,1.6C31.7,48.7,32.2,50.3,32.2,52.3z M23.3,52.3c0,1.4,0.3,2.4,0.8,3.1
	c0.5,0.7,1.3,1,2.3,1c2.1,0,3.1-1.4,3.1-4.1c0-2.7-1-4.1-3.1-4.1c-1,0-1.8,0.3-2.3,1C23.6,49.9,23.3,50.9,23.3,52.3z"/>
<path class="st2" d="M39.8,58.4l-2.9-9.5h-0.1c0.1,1.9,0.2,3.2,0.2,3.9v5.6h-2.3V46.2h3.5l2.9,9.3h0l3-9.3h3.5v12.1h-2.4v-5.7
	c0-0.3,0-0.6,0-0.9c0-0.4,0-1.3,0.1-2.8h-0.1l-3.1,9.5H39.8z"/>
<path class="st2" d="M55.8,58.4l-2.9-9.5h-0.1c0.1,1.9,0.2,3.2,0.2,3.9v5.6h-2.3V46.2h3.5l2.9,9.3h0l3-9.3h3.5v12.1h-2.4v-5.7
	c0-0.3,0-0.6,0-0.9c0-0.4,0-1.3,0.1-2.8h-0.1l-3.1,9.5H55.8z"/>
<path class="st2" d="M66.7,58.4V46.2h2.6v12.1H66.7z"/>
<path class="st2" d="M77,58.4h-2.6v-10h-3.3v-2.1h9.2v2.1H77V58.4z"/>
<path class="st2" d="M86.9,58.4h-2.6v-10H81v-2.1h9.2v2.1h-3.3V58.4z"/>
<path class="st2" d="M99,58.4h-7V46.2h7v2.1h-4.4V51h4.1v2.1h-4.1v3.1H99V58.4z"/>
<path class="st2" d="M108.6,58.4h-7V46.2h7v2.1h-4.4V51h4.1v2.1h-4.1v3.1h4.4V58.4z"/>
<path class="st2" d="M21.2,71.4c0.2,0,0.5,0,0.7-0.1c0.2,0,0.4-0.1,0.5-0.1v1.1c-0.1,0.1-0.4,0.1-0.7,0.2c-0.3,0-0.6,0.1-0.8,0.1
	c-1.8,0-2.6-0.9-2.6-2.8v-5.4H17v-0.7l1.3-0.6l0.6-1.9h0.8v2.1h2.6v1.1h-2.6v5.4c0,0.5,0.1,1,0.4,1.3C20.4,71.3,20.7,71.4,21.2,71.4
	z"/>
<path class="st2" d="M32.1,67.8c0,1.5-0.4,2.6-1.1,3.5c-0.7,0.8-1.8,1.2-3.1,1.2c-0.8,0-1.5-0.2-2.2-0.6c-0.6-0.4-1.1-0.9-1.5-1.6
	c-0.3-0.7-0.5-1.5-0.5-2.5c0-1.5,0.4-2.6,1.1-3.5c0.7-0.8,1.8-1.2,3.1-1.2c1.3,0,2.3,0.4,3,1.3C31.7,65.2,32.1,66.4,32.1,67.8z
	 M25.2,67.8c0,1.2,0.2,2,0.7,2.7c0.5,0.6,1.1,0.9,2.1,0.9c0.9,0,1.6-0.3,2.1-0.9c0.5-0.6,0.7-1.5,0.7-2.7c0-1.2-0.2-2-0.7-2.6
	c-0.5-0.6-1.2-0.9-2.1-0.9c-0.9,0-1.6,0.3-2,0.9C25.4,65.8,25.2,66.6,25.2,67.8z"/>
<path class="st2" d="M41.6,67.7v4.7H39V60.2h3.5c1.6,0,2.9,0.3,3.7,0.9c0.8,0.6,1.2,1.5,1.2,2.7c0,0.7-0.2,1.3-0.6,1.9
	c-0.4,0.6-0.9,1-1.7,1.3c1.8,2.7,3,4.5,3.6,5.3h-2.9l-2.9-4.7H41.6z M41.6,65.6h0.8c0.8,0,1.4-0.1,1.8-0.4c0.4-0.3,0.6-0.7,0.6-1.3
	c0-0.6-0.2-1-0.6-1.2s-1-0.4-1.8-0.4h-0.8V65.6z"/>
<path class="st2" d="M57.2,72.4h-7V60.2h7v2.1h-4.4V65h4.1v2.1h-4.1v3.1h4.4V72.4z"/>
<path class="st2" d="M66.9,69c0,1.1-0.4,2-1.2,2.6c-0.8,0.6-1.9,0.9-3.3,0.9c-1.3,0-2.4-0.2-3.4-0.7v-2.4c0.8,0.4,1.5,0.6,2.1,0.8
	c0.6,0.2,1.1,0.2,1.6,0.2c0.6,0,1-0.1,1.3-0.3c0.3-0.2,0.5-0.5,0.5-1c0-0.2-0.1-0.4-0.2-0.6c-0.1-0.2-0.3-0.4-0.6-0.5
	c-0.3-0.2-0.8-0.4-1.6-0.8c-0.7-0.3-1.3-0.7-1.7-1c-0.4-0.3-0.7-0.7-0.9-1.1c-0.2-0.4-0.3-0.9-0.3-1.5c0-1.1,0.4-1.9,1.1-2.5
	c0.7-0.6,1.7-0.9,3-0.9c0.6,0,1.2,0.1,1.8,0.2c0.6,0.1,1.2,0.4,1.8,0.6l-0.8,2c-0.6-0.3-1.2-0.5-1.6-0.6c-0.4-0.1-0.8-0.2-1.2-0.2
	c-0.5,0-0.9,0.1-1.1,0.3c-0.3,0.2-0.4,0.5-0.4,0.9c0,0.2,0.1,0.4,0.2,0.6c0.1,0.2,0.3,0.3,0.5,0.5c0.2,0.2,0.8,0.4,1.6,0.9
	c1.1,0.5,1.9,1.1,2.3,1.6C66.7,67.5,66.9,68.2,66.9,69z"/>
<path class="st2" d="M74.3,62.2c-1,0-1.7,0.4-2.2,1.1c-0.5,0.7-0.8,1.7-0.8,3c0,2.7,1,4.1,3,4.1c0.9,0,1.9-0.2,3.1-0.6v2.2
	c-1,0.4-2.1,0.6-3.3,0.6c-1.8,0-3.1-0.5-4.1-1.6c-0.9-1.1-1.4-2.6-1.4-4.6c0-1.3,0.2-2.4,0.7-3.3c0.5-0.9,1.1-1.7,2-2.2
	c0.9-0.5,1.9-0.8,3-0.8c1.2,0,2.4,0.3,3.6,0.9L77,63c-0.5-0.2-0.9-0.4-1.4-0.6C75.2,62.3,74.7,62.2,74.3,62.2z"/>
<path class="st2" d="M89.8,60.2v7.9c0,0.9-0.2,1.7-0.6,2.4c-0.4,0.7-1,1.2-1.7,1.6c-0.8,0.4-1.7,0.5-2.7,0.5c-1.6,0-2.8-0.4-3.6-1.2
	c-0.9-0.8-1.3-1.9-1.3-3.3v-7.8h2.6v7.4c0,0.9,0.2,1.6,0.6,2.1c0.4,0.4,1,0.7,1.9,0.7c0.8,0,1.5-0.2,1.8-0.7
	c0.4-0.4,0.6-1.1,0.6-2.1v-7.4H89.8z"/>
<path class="st2" d="M99.8,72.4h-7V60.2h7v2.1h-4.4V65h4.1v2.1h-4.1v3.1h4.4V72.4z"/>
<path class="st2" d="M27.3,86.4V74.2h2.6v12.1H27.3z"/>
<path class="st2" d="M37.6,86.4H35v-10h-3.3v-2.1h9.2v2.1h-3.3V86.4z"/>
<path class="st2" d="M50.2,86.4l-0.9-2.9h-4.4L44,86.4h-2.8l4.3-12.2h3.1L53,86.4H50.2z M48.7,81.3c-0.8-2.6-1.3-4.1-1.4-4.4
	c-0.1-0.3-0.2-0.6-0.2-0.8c-0.2,0.7-0.7,2.5-1.6,5.3H48.7z"/>
<path class="st2" d="M54.5,86.4V74.2h2.6v10H62v2.1H54.5z"/>
<path class="st2" d="M64.1,86.4V74.2h2.6v12.1H64.1z"/>
<path class="st2" d="M77.2,86.4l-0.9-2.9h-4.4L71,86.4h-2.8l4.3-12.2h3.1l4.3,12.2H77.2z M75.7,81.3c-0.8-2.6-1.3-4.1-1.4-4.4
	c-0.1-0.3-0.2-0.6-0.2-0.8c-0.2,0.7-0.7,2.5-1.6,5.3H75.7z"/>
<path class="st2" d="M92.2,86.4H89l-5.3-9.2h-0.1c0.1,1.6,0.2,2.8,0.2,3.5v5.7h-2.3V74.2h3.2l5.3,9.1H90c-0.1-1.6-0.1-2.7-0.1-3.3
	v-5.7h2.3V86.4z"/>
<path class="st2" d="M51.7,102.4l-0.9-2.9h-4.4l-0.9,2.9h-2.8l4.3-12.2h3.1l4.3,12.2H51.7z M50.2,97.3c-0.8-2.6-1.3-4.1-1.4-4.4
	c-0.1-0.3-0.2-0.6-0.2-0.8c-0.2,0.7-0.7,2.5-1.6,5.3H50.2z"/>
<path class="st2" d="M58.6,97.7v4.7H56V90.2h3.5c1.6,0,2.9,0.3,3.7,0.9c0.8,0.6,1.2,1.5,1.2,2.7c0,0.7-0.2,1.3-0.6,1.9
	c-0.4,0.6-0.9,1-1.7,1.3c1.8,2.7,3,4.5,3.6,5.3h-2.9L60,97.7H58.6z M58.6,95.6h0.8c0.8,0,1.4-0.1,1.8-0.4c0.4-0.3,0.6-0.7,0.6-1.3
	c0-0.6-0.2-1-0.6-1.2c-0.4-0.2-1-0.4-1.8-0.4h-0.8V95.6z"/>
<path class="st2" d="M71.9,102.4h-2.6v-10h-3.3v-2.1h9.2v2.1h-3.3V102.4z"/>
<g class="st0">
	<path class="st1" d="M-173.9,27.3c-1.1,0-2,0.4-2.7,1.2c-0.7,0.8-1,1.9-1,3.3c0,1.5,0.3,2.6,0.9,3.4c0.6,0.8,1.5,1.1,2.7,1.1
		c0.5,0,1-0.1,1.5-0.2c0.5-0.1,1-0.2,1.5-0.4v1.7c-1,0.4-2,0.5-3.2,0.5c-1.8,0-3.1-0.5-4.1-1.6c-1-1.1-1.4-2.6-1.4-4.6
		c0-1.3,0.2-2.4,0.7-3.3c0.5-0.9,1.1-1.7,2-2.2c0.9-0.5,1.9-0.8,3.1-0.8c1.2,0,2.4,0.3,3.4,0.8l-0.7,1.7c-0.4-0.2-0.8-0.4-1.3-0.5
		C-172.9,27.4-173.4,27.3-173.9,27.3z"/>
	<path class="st1" d="M-157.5,31.8c0,2-0.5,3.5-1.5,4.6c-1,1.1-2.4,1.6-4.2,1.6c-1.8,0-3.2-0.5-4.2-1.6c-1-1.1-1.5-2.6-1.5-4.6
		c0-2,0.5-3.5,1.5-4.6c1-1.1,2.4-1.6,4.2-1.6c1.8,0,3.2,0.5,4.2,1.6C-158,28.3-157.5,29.9-157.5,31.8z M-166.8,31.8
		c0,1.5,0.3,2.6,0.9,3.4c0.6,0.8,1.5,1.2,2.7,1.2c1.2,0,2.1-0.4,2.7-1.1c0.6-0.8,0.9-1.9,0.9-3.4c0-1.5-0.3-2.6-0.9-3.4
		c-0.6-0.8-1.5-1.2-2.7-1.2c-1.2,0-2.1,0.4-2.7,1.2C-166.5,29.2-166.8,30.4-166.8,31.8z"/>
	<path class="st1" d="M-149.7,37.9l-3.5-10.1h-0.1c0.1,1.5,0.1,2.9,0.1,4.2v5.9h-1.8V25.8h2.8l3.4,9.7h0l3.5-9.7h2.8v12.1h-1.9v-6
		c0-0.6,0-1.4,0-2.4c0-1,0.1-1.6,0.1-1.8h-0.1l-3.6,10.1H-149.7z"/>
	<path class="st1" d="M-134,37.9l-3.5-10.1h-0.1c0.1,1.5,0.1,2.9,0.1,4.2v5.9h-1.8V25.8h2.8l3.4,9.7h0l3.5-9.7h2.8v12.1h-1.9v-6
		c0-0.6,0-1.4,0-2.4c0-1,0.1-1.6,0.1-1.8h-0.1l-3.6,10.1H-134z"/>
	<path class="st1" d="M-123.6,37.9V25.8h2v12.1H-123.6z"/>
	<path class="st1" d="M-114.2,37.9h-2V27.5h-3.6v-1.7h9.1v1.7h-3.6V37.9z"/>
	<path class="st1" d="M-104.6,37.9h-2V27.5h-3.6v-1.7h9.1v1.7h-3.6V37.9z"/>
	<path class="st1" d="M-92.3,37.9h-6.9V25.8h6.9v1.7h-4.9v3.3h4.6v1.7h-4.6v3.8h4.9V37.9z"/>
	<path class="st1" d="M-82.8,37.9h-6.9V25.8h6.9v1.7h-4.9v3.3h4.6v1.7h-4.6v3.8h4.9V37.9z"/>
	<path class="st1" d="M-71.5,37.9h-2V27.5h-3.6v-1.7h9.1v1.7h-3.6V37.9z"/>
	<path class="st1" d="M-55.3,31.8c0,2-0.5,3.5-1.5,4.6c-1,1.1-2.4,1.6-4.2,1.6c-1.8,0-3.2-0.5-4.2-1.6c-1-1.1-1.5-2.6-1.5-4.6
		c0-2,0.5-3.5,1.5-4.6c1-1.1,2.4-1.6,4.2-1.6c1.8,0,3.2,0.5,4.2,1.6C-55.8,28.3-55.3,29.9-55.3,31.8z M-64.6,31.8
		c0,1.5,0.3,2.6,0.9,3.4c0.6,0.8,1.5,1.2,2.7,1.2c1.2,0,2.1-0.4,2.7-1.1c0.6-0.8,0.9-1.9,0.9-3.4c0-1.5-0.3-2.6-0.9-3.4
		c-0.6-0.8-1.5-1.2-2.7-1.2c-1.2,0-2.1,0.4-2.7,1.2C-64.3,29.2-64.6,30.4-64.6,31.8z"/>
	<path class="st1" d="M-46.3,33.1v4.8h-2V25.8h3.4c1.6,0,2.7,0.3,3.5,0.9c0.8,0.6,1.1,1.5,1.1,2.7c0,1.5-0.8,2.6-2.4,3.2l3.4,5.4
		h-2.3l-2.9-4.8H-46.3z M-46.3,31.4h1.4c0.9,0,1.6-0.2,2-0.5c0.4-0.3,0.6-0.9,0.6-1.5c0-0.7-0.2-1.2-0.7-1.5c-0.4-0.3-1.1-0.4-2-0.4
		h-1.3V31.4z"/>
	<path class="st1" d="M-30.6,37.9h-6.9V25.8h6.9v1.7h-4.9v3.3h4.6v1.7h-4.6v3.8h4.9V37.9z"/>
	<path class="st1" d="M-21,34.6c0,1.1-0.4,1.9-1.2,2.5c-0.8,0.6-1.9,0.9-3.2,0.9c-1.4,0-2.5-0.2-3.4-0.6v-1.9
		c0.6,0.3,1.1,0.5,1.8,0.6c0.6,0.1,1.2,0.2,1.7,0.2c0.8,0,1.4-0.1,1.7-0.4c0.4-0.3,0.6-0.7,0.6-1.2c0-0.5-0.2-0.8-0.5-1.2
		c-0.3-0.3-1.1-0.7-2.1-1.1c-1.1-0.4-1.9-1-2.3-1.5c-0.5-0.6-0.7-1.3-0.7-2.1c0-1,0.4-1.8,1.1-2.4c0.7-0.6,1.7-0.9,2.9-0.9
		c1.2,0,2.3,0.3,3.5,0.8l-0.6,1.6c-1.1-0.5-2-0.7-2.9-0.7c-0.6,0-1.1,0.1-1.5,0.4c-0.3,0.3-0.5,0.6-0.5,1.1c0,0.3,0.1,0.6,0.2,0.8
		c0.1,0.2,0.4,0.4,0.7,0.6c0.3,0.2,0.9,0.5,1.6,0.8c0.9,0.4,1.5,0.7,2,1c0.4,0.3,0.7,0.7,0.9,1.1C-21.1,33.6-21,34.1-21,34.6z"/>
	<path class="st1" d="M-13.5,27.3c-1.1,0-2,0.4-2.7,1.2c-0.7,0.8-1,1.9-1,3.3c0,1.5,0.3,2.6,0.9,3.4c0.6,0.8,1.5,1.1,2.7,1.1
		c0.5,0,1-0.1,1.5-0.2c0.5-0.1,1-0.2,1.5-0.4v1.7c-1,0.4-2,0.5-3.2,0.5c-1.8,0-3.1-0.5-4.1-1.6c-1-1.1-1.4-2.6-1.4-4.6
		c0-1.3,0.2-2.4,0.7-3.3c0.5-0.9,1.1-1.7,2-2.2c0.9-0.5,1.9-0.8,3.1-0.8c1.2,0,2.4,0.3,3.4,0.8l-0.7,1.7c-0.4-0.2-0.8-0.4-1.3-0.5
		C-12.5,27.4-12.9,27.3-13.5,27.3z"/>
	<path class="st1" d="M1.7,25.8v7.9c0,0.9-0.2,1.7-0.6,2.4c-0.4,0.7-0.9,1.2-1.7,1.6c-0.7,0.4-1.6,0.5-2.6,0.5
		c-1.5,0-2.7-0.4-3.5-1.2c-0.8-0.8-1.3-1.9-1.3-3.3v-7.8h2v7.7c0,1,0.2,1.7,0.7,2.2c0.5,0.5,1.2,0.7,2.1,0.7c1.9,0,2.8-1,2.8-2.9
		v-7.7H1.7z"/>
	<path class="st1" d="M11.6,37.9H4.8V25.8h6.9v1.7H6.8v3.3h4.6v1.7H6.8v3.8h4.9V37.9z"/>
	<path class="st1" d="M18.7,37.9V25.8h2v12.1H18.7z"/>
	<path class="st1" d="M28.1,37.9h-2V27.5h-3.6v-1.7h9.1v1.7h-3.6V37.9z"/>
	<path class="st1" d="M41,37.9l-1.2-3.4h-4.6L34,37.9h-2.1l4.5-12.2h2.2l4.5,12.2H41z M39.3,32.8l-1.1-3.3c-0.1-0.2-0.2-0.6-0.3-1
		c-0.1-0.5-0.2-0.8-0.3-1c-0.1,0.7-0.4,1.4-0.7,2.2l-1.1,3.2H39.3z"/>
	<path class="st1" d="M44.7,37.9V25.8h2v10.4h5.1v1.7H44.7z"/>
	<path class="st1" d="M53.9,37.9V25.8h2v12.1H53.9z"/>
	<path class="st1" d="M66.7,37.9l-1.2-3.4h-4.6l-1.2,3.4h-2.1l4.5-12.2h2.2l4.5,12.2H66.7z M64.9,32.8l-1.1-3.3
		c-0.1-0.2-0.2-0.6-0.3-1c-0.1-0.5-0.2-0.8-0.3-1c-0.1,0.7-0.4,1.4-0.7,2.2l-1.1,3.2H64.9z"/>
	<path class="st1" d="M80.5,37.9H78l-6-9.7H72l0,0.5c0.1,1,0.1,2,0.1,2.8v6.3h-1.8V25.8h2.4l6,9.6h0c0-0.1,0-0.6-0.1-1.4
		c0-0.8,0-1.4,0-1.9v-6.4h1.8V37.9z"/>
	<path class="st1" d="M95.6,37.9l-1.2-3.4h-4.6l-1.2,3.4h-2.1L91,25.7h2.2l4.5,12.2H95.6z M93.9,32.8l-1.1-3.3
		c-0.1-0.2-0.2-0.6-0.3-1c-0.1-0.5-0.2-0.8-0.3-1c-0.1,0.7-0.4,1.4-0.7,2.2l-1.1,3.2H93.9z"/>
	<path class="st1" d="M101.3,33.1v4.8h-2V25.8h3.4c1.6,0,2.7,0.3,3.5,0.9c0.8,0.6,1.1,1.5,1.1,2.7c0,1.5-0.8,2.6-2.4,3.2l3.4,5.4
		h-2.3l-2.9-4.8H101.3z M101.3,31.4h1.4c0.9,0,1.6-0.2,2-0.5c0.4-0.3,0.6-0.9,0.6-1.5c0-0.7-0.2-1.2-0.7-1.5c-0.4-0.3-1.1-0.4-2-0.4
		h-1.3V31.4z"/>
	<path class="st1" d="M114.4,37.9h-2V27.5h-3.6v-1.7h9.1v1.7h-3.6V37.9z"/>
</g>
<path class="st3" d="M72.5,39c-4.7,0-9.4-0.1-14.1,0c-2,0.1-3.4-0.7-4.3-2.4c-1.9-3.4-3.8-6.8-5.8-10.2c-0.8-1.3-1.6-2.6-2.5-3.8
	c-0.3-0.5-0.9-0.8-1.4-1.1c-2-1.1-3-0.5-3,1.8c0.1,3.8,0.1,7.6,0.3,11.4c0.1,1.9,0.6,2.3,2.6,2.4c0,0,0.1,0,0.1,0
	c0.6,0,1.4,0,1.4,0.9c0,0.9-0.8,0.9-1.5,0.9c-1.2,0-2.5-0.1-3.7-0.1c-2.6,0-5.3,0.1-7.9,0.2c-0.5,0-1.1,0-1.5,0
	c-0.6,0-0.9-0.6-0.9-0.9c0-0.3,0-0.8,1-0.9c0,0,0.1,0,0.1,0c2.9-0.3,3.4-0.8,3.6-3.8c0.1-1.7,0.2-3.4,0.2-5.2c0-5.8,0.1-11.7,0-17.5
	c0-4.3-2.7-6.9-6.8-7.2c-3.3-0.2-6.7-0.1-9.9,0.4c-5.6,0.9-9.3,4.1-10.7,9.8c-1.1,4.5-0.9,8.9,1,13.1c2.1,4.8,6.1,7.2,11.1,7.8
	c3.6,0.4,7.3,0.3,10.7-1.2c0.3-0.1,0.9-0.1,1.1,0.1c0.2,0.2,0.1,0.8,0,1.1c-0.7,1.8-1.9,3-3.9,3.5c-5.7,1.4-11.3,1.6-16.9-0.4
	c-4.6-1.7-7.5-5.1-9.2-9.5c-2.2-5.7-2.3-11.6,0.2-17.3c1.9-4.5,5.4-7.2,9.8-8.9c5.3-2,10.8-2.1,16.3-1.7C34.3,0.7,40.6,1,46.9,0.6
	c2.8-0.2,5.7-0.1,8.3,1.2c2.8,1.3,4.2,3.5,4.1,6.4c-0.2,4.8-2.2,8.7-6.8,10.9c-1.3,0.6-1.3,0.7-0.5,2c2.6,4,5.3,8,7.9,12
	c0.5,0.7,1,1.3,1.5,2c1.3,2,3.3,2.2,5.4,2c1.3-0.1,2.1-1.2,2.2-2.9c0.2-5,0.4-10,0.4-15c0-4.1-0.1-8.2-0.2-12.2
	c0-0.7-0.1-1.4-0.3-2.1c-0.4-1.7-1-2.2-2.7-2.3c-0.3,0-0.6-0.1-0.8-0.1c-0.6-0.1-0.9-0.3-0.9-1c0-0.7,0.6-0.7,1-0.8
	c0.7,0,1.2,0,1.8,0c3.5,0,7.1,0,10.6,0c0.6,0,1.3-0.1,1.9-0.1c0.4,0,1.1,0,1,0.9c-0.1,0.9-0.5,0.9-1.1,0.9c-0.2,0-0.5,0-0.8,0
	c-1.8-0.2-2.2,0.1-2.4,1.9c-0.3,3.2-0.6,6.4-0.6,9.6c-0.1,6,0,12,0,18c0,1.1,0.2,2.2,0.4,3.3c0.4,1.8,2.2,2.3,3.5,0.9
	c1.1-1.2,2-2.7,2.8-4.2c3-5.5,5.9-11.1,8.8-16.6c2.5-4.7,5.1-9.4,7.6-14.1c0.2-0.3,0.3-0.6,0.5-0.8c0.6-0.6,1-0.5,1.4,0.2
	c1.6,4.1,3.2,8.1,4.7,12.2c1.4,3.5,2.6,7.1,4,10.7c1.4,3.6,2.8,7.1,4.3,10.7c0.5,1.2,1.2,2.3,2.7,2.6c0.3,0,0.8,0.4,0.8,1
	c0,0.6-0.7,0.7-1.1,0.7c-3,0-2.1-0.2-5.1-0.2c-0.8,0-5.5,0.4-6.3,0.3c-0.4-0.1-1.2-0.2-1.2-0.9c0-0.7,0.7-0.8,1.1-0.9
	c2-0.4,2.1-0.4,1.5-2.4c-1.1-3.7-2.4-7.3-3.6-10.9c-0.3-0.8-0.8-1.3-1.7-1.3c-2.6,0-5.1,0-7.7,0.1c-0.5,0-1.3,0.5-1.5,0.9
	c-1.8,3.7-3.6,7.5-5.3,11.3c-0.8,1.8-0.5,2.2,1.4,2.5c0.8,0.1,1,0.4,1,0.9c-0.1,0.6-0.3,0.9-1.1,0.8C86.9,38.8,85.5,38.7,72.5,39z
	 M41.6,16.4c0,2.1,0,2.1,2.1,2.3c5,0.6,7.7-1.8,8.7-5.6c0.8-3.2-0.5-6.6-3-7.9c-1.8-0.9-3.7-0.9-5.6-0.7c-1.6,0.1-1.9,0.4-1.9,2
	C41.7,8.3,41.6,14.9,41.6,16.4z M98.7,11.5c-0.2,0-0.3,0-0.5-0.1c-1.1,2.1-2.2,4.2-3.3,6.3c-0.1,0.1,0.3,0.7,0.5,0.7
	c1.6,0.1,3.2,0.1,4.8,0.1c0.7,0,0.8-0.6,0.6-1.1c-0.3-0.9-0.6-1.7-0.9-2.6C99.5,13.7,99.1,12.6,98.7,11.5z"/>
</svg>
