<?xml version="1.0" encoding="utf-8"?>
<!-- Generator: Adobe Illustrator 20.1.0, SVG Export Plug-In . SVG Version: 6.00 Build 0)  -->
<svg version="1.1" id="Livello_1" xmlns="http://www.w3.org/2000/svg" xmlns:xlink="http://www.w3.org/1999/xlink" x="0px" y="0px"
	 viewBox="0 0 416.4 83.7" style="enable-background:new 0 0 416.4 83.7;" xml:space="preserve">
<style type="text/css">
	.st0{display:none;}
	.st1{display:inline;fill:#E91D26;}
	.st2{fill:#E91D26;}
</style>
<g class="st0">
	<path class="st1" d="M5.7,22.2c-1,0-1.7,0.4-2.2,1.1c-0.5,0.7-0.8,1.7-0.8,3c0,2.7,1,4.1,3,4.1c0.9,0,1.9-0.2,3.1-0.6v2.2
		c-1,0.4-2.1,0.6-3.3,0.6c-1.8,0-3.1-0.5-4.1-1.6C0.5,29.8,0,28.3,0,26.3C0,25,0.2,23.9,0.7,23c0.5-0.9,1.1-1.7,2-2.2
		c0.9-0.5,1.9-0.8,3-0.8c1.2,0,2.4,0.3,3.6,0.9L8.4,23C8,22.7,7.5,22.6,7,22.4C6.6,22.2,6.1,22.2,5.7,22.2z"/>
	<path class="st1" d="M22.4,26.2c0,2-0.5,3.6-1.5,4.6c-1,1.1-2.4,1.6-4.3,1.6c-1.9,0-3.3-0.5-4.3-1.6c-1-1.1-1.5-2.6-1.5-4.6
		s0.5-3.6,1.5-4.6c1-1.1,2.4-1.6,4.3-1.6c1.9,0,3.3,0.5,4.3,1.6C21.9,22.7,22.4,24.2,22.4,26.2z M13.5,26.2c0,1.4,0.3,2.4,0.8,3.1
		c0.5,0.7,1.3,1,2.3,1c2.1,0,3.1-1.4,3.1-4.1c0-2.7-1-4.1-3.1-4.1c-1,0-1.8,0.3-2.3,1C13.8,23.9,13.5,24.9,13.5,26.2z"/>
	<path class="st1" d="M30,32.3l-2.9-9.5H27c0.1,1.9,0.2,3.2,0.2,3.9v5.6h-2.3V20.2h3.5l2.9,9.3h0l3-9.3h3.5v12.1h-2.4v-5.7
		c0-0.3,0-0.6,0-0.9c0-0.4,0-1.3,0.1-2.8h-0.1l-3.1,9.5H30z"/>
	<path class="st1" d="M46.1,32.3l-2.9-9.5h-0.1c0.1,1.9,0.2,3.2,0.2,3.9v5.6h-2.3V20.2h3.5l2.9,9.3h0l3-9.3h3.5v12.1h-2.4v-5.7
		c0-0.3,0-0.6,0-0.9c0-0.4,0-1.3,0.1-2.8h-0.1l-3.1,9.5H46.1z"/>
	<path class="st1" d="M57,32.3V20.2h2.6v12.1H57z"/>
	<path class="st1" d="M67.3,32.3h-2.6v-10h-3.3v-2.1h9.2v2.1h-3.3V32.3z"/>
	<path class="st1" d="M77.1,32.3h-2.6v-10h-3.3v-2.1h9.2v2.1h-3.3V32.3z"/>
	<path class="st1" d="M89.3,32.3h-7V20.2h7v2.1h-4.4V25H89v2.1h-4.1v3.1h4.4V32.3z"/>
	<path class="st1" d="M98.8,32.3h-7V20.2h7v2.1h-4.4V25h4.1v2.1h-4.1v3.1h4.4V32.3z"/>
	<path class="st1" d="M9.6,45.4c0.2,0,0.5,0,0.7-0.1c0.2,0,0.4-0.1,0.5-0.1v1.1c-0.1,0.1-0.4,0.1-0.7,0.2c-0.3,0-0.6,0.1-0.8,0.1
		c-1.8,0-2.6-0.9-2.6-2.8v-5.4H5.5v-0.7l1.3-0.6l0.6-1.9h0.8v2.1h2.6v1.1H8.1v5.4c0,0.5,0.1,1,0.4,1.3C8.8,45.2,9.1,45.4,9.6,45.4z"
		/>
	<path class="st1" d="M20.5,41.8c0,1.5-0.4,2.6-1.1,3.5c-0.7,0.8-1.8,1.2-3.1,1.2c-0.8,0-1.5-0.2-2.2-0.6c-0.6-0.4-1.1-0.9-1.5-1.6
		c-0.3-0.7-0.5-1.5-0.5-2.5c0-1.5,0.4-2.6,1.1-3.5c0.7-0.8,1.8-1.2,3.1-1.2c1.3,0,2.3,0.4,3,1.3C20.1,39.2,20.5,40.3,20.5,41.8z
		 M13.6,41.8c0,1.2,0.2,2,0.7,2.7c0.5,0.6,1.1,0.9,2,0.9c0.9,0,1.6-0.3,2.1-0.9c0.5-0.6,0.7-1.5,0.7-2.7c0-1.2-0.2-2-0.7-2.6
		c-0.5-0.6-1.2-0.9-2.1-0.9c-0.9,0-1.6,0.3-2,0.9C13.8,39.7,13.6,40.6,13.6,41.8z"/>
	<path class="st1" d="M30,41.7v4.7h-2.6V34.2h3.5c1.6,0,2.9,0.3,3.7,0.9c0.8,0.6,1.2,1.5,1.2,2.7c0,0.7-0.2,1.3-0.6,1.9
		c-0.4,0.6-0.9,1-1.7,1.3c1.8,2.7,3,4.5,3.6,5.3h-2.9l-2.9-4.7H30z M30,39.6h0.8c0.8,0,1.4-0.1,1.8-0.4c0.4-0.3,0.6-0.7,0.6-1.3
		c0-0.6-0.2-1-0.6-1.2c-0.4-0.2-1-0.4-1.8-0.4H30V39.6z"/>
	<path class="st1" d="M45.6,46.3h-7V34.2h7v2.1h-4.4V39h4.1v2.1h-4.1v3.1h4.4V46.3z"/>
	<path class="st1" d="M55.3,43c0,1.1-0.4,2-1.2,2.6c-0.8,0.6-1.9,0.9-3.3,0.9c-1.3,0-2.4-0.2-3.4-0.7v-2.4c0.8,0.4,1.5,0.6,2.1,0.8
		c0.6,0.2,1.1,0.2,1.6,0.2c0.6,0,1-0.1,1.3-0.3c0.3-0.2,0.5-0.5,0.5-1c0-0.2-0.1-0.4-0.2-0.6c-0.1-0.2-0.3-0.4-0.6-0.5
		c-0.3-0.2-0.8-0.4-1.6-0.8c-0.7-0.3-1.3-0.7-1.7-1c-0.4-0.3-0.7-0.7-0.9-1.1c-0.2-0.4-0.3-0.9-0.3-1.5c0-1.1,0.4-1.9,1.1-2.5
		c0.7-0.6,1.7-0.9,3-0.9c0.6,0,1.2,0.1,1.8,0.2c0.6,0.1,1.2,0.4,1.8,0.6l-0.8,2c-0.6-0.3-1.2-0.5-1.6-0.6c-0.4-0.1-0.8-0.2-1.2-0.2
		c-0.5,0-0.9,0.1-1.1,0.3c-0.3,0.2-0.4,0.5-0.4,0.9c0,0.2,0.1,0.4,0.2,0.6c0.1,0.2,0.3,0.3,0.5,0.5c0.2,0.2,0.8,0.4,1.6,0.9
		c1.1,0.5,1.9,1.1,2.3,1.6C55.1,41.5,55.3,42.2,55.3,43z"/>
	<path class="st1" d="M62.7,36.2c-1,0-1.7,0.4-2.3,1.1c-0.5,0.7-0.8,1.7-0.8,3c0,2.7,1,4.1,3,4.1c0.9,0,1.9-0.2,3.1-0.6v2.2
		c-1,0.4-2.1,0.6-3.3,0.6c-1.8,0-3.1-0.5-4.1-1.6c-0.9-1.1-1.4-2.6-1.4-4.6c0-1.3,0.2-2.4,0.7-3.3c0.5-0.9,1.1-1.7,2-2.2
		c0.9-0.5,1.9-0.8,3-0.8c1.2,0,2.4,0.3,3.6,0.9L65.4,37c-0.5-0.2-0.9-0.4-1.4-0.6C63.6,36.2,63.1,36.2,62.7,36.2z"/>
	<path class="st1" d="M78.2,34.2V42c0,0.9-0.2,1.7-0.6,2.4c-0.4,0.7-1,1.2-1.7,1.6c-0.8,0.4-1.7,0.5-2.7,0.5c-1.6,0-2.8-0.4-3.6-1.2
		c-0.9-0.8-1.3-1.9-1.3-3.3v-7.8h2.6v7.4c0,0.9,0.2,1.6,0.6,2.1c0.4,0.4,1,0.7,1.9,0.7c0.8,0,1.5-0.2,1.8-0.7
		c0.4-0.4,0.6-1.1,0.6-2.1v-7.4H78.2z"/>
	<path class="st1" d="M88.2,46.3h-7V34.2h7v2.1h-4.4V39h4.1v2.1h-4.1v3.1h4.4V46.3z"/>
	<path class="st1" d="M16.9,60.3V48.2h2.6v12.1H16.9z"/>
	<path class="st1" d="M27.2,60.3h-2.6v-10h-3.3v-2.1h9.2v2.1h-3.3V60.3z"/>
	<path class="st1" d="M39.8,60.3L39,57.4h-4.4l-0.9,2.9h-2.8l4.3-12.2h3.1l4.3,12.2H39.8z M38.3,55.3c-0.8-2.6-1.3-4.1-1.4-4.4
		c-0.1-0.3-0.2-0.6-0.2-0.8c-0.2,0.7-0.7,2.5-1.6,5.3H38.3z"/>
	<path class="st1" d="M44.1,60.3V48.2h2.6v10h4.9v2.1H44.1z"/>
	<path class="st1" d="M53.7,60.3V48.2h2.6v12.1H53.7z"/>
	<path class="st1" d="M66.8,60.3l-0.9-2.9h-4.4l-0.9,2.9h-2.8l4.3-12.2h3.1l4.3,12.2H66.8z M65.3,55.3c-0.8-2.6-1.3-4.1-1.4-4.4
		c-0.1-0.3-0.2-0.6-0.2-0.8c-0.2,0.7-0.7,2.5-1.6,5.3H65.3z"/>
	<path class="st1" d="M81.9,60.3h-3.3l-5.3-9.2h-0.1c0.1,1.6,0.2,2.8,0.2,3.5v5.7h-2.3V48.2h3.2l5.3,9.1h0.1
		c-0.1-1.6-0.1-2.7-0.1-3.3v-5.7h2.3V60.3z"/>
	<path class="st1" d="M42,74.3l-0.9-2.9h-4.4l-0.9,2.9H33l4.3-12.2h3.1l4.3,12.2H42z M40.5,69.3c-0.8-2.6-1.3-4.1-1.4-4.4
		c-0.1-0.3-0.2-0.6-0.2-0.8c-0.2,0.7-0.7,2.5-1.6,5.3H40.5z"/>
	<path class="st1" d="M48.8,69.7v4.7h-2.6V62.2h3.5c1.6,0,2.9,0.3,3.7,0.9c0.8,0.6,1.2,1.5,1.2,2.7c0,0.7-0.2,1.3-0.6,1.9
		c-0.4,0.6-0.9,1-1.7,1.3c1.8,2.7,3,4.5,3.6,5.3h-2.9l-2.9-4.7H48.8z M48.8,67.6h0.8c0.8,0,1.4-0.1,1.8-0.4c0.4-0.3,0.6-0.7,0.6-1.3
		c0-0.6-0.2-1-0.6-1.2s-1-0.4-1.8-0.4h-0.8V67.6z"/>
	<path class="st1" d="M62.2,74.3h-2.6v-10h-3.3v-2.1h9.2v2.1h-3.3V74.3z"/>
</g>
<g class="st0">
	<path class="st1" d="M124.5,1.7c-1.1,0-2,0.4-2.7,1.2c-0.7,0.8-1,1.9-1,3.3c0,1.5,0.3,2.6,0.9,3.4c0.6,0.8,1.5,1.1,2.7,1.1
		c0.5,0,1-0.1,1.5-0.2c0.5-0.1,1-0.2,1.5-0.4V12c-1,0.4-2,0.5-3.2,0.5c-1.8,0-3.1-0.5-4.1-1.6c-1-1.1-1.4-2.6-1.4-4.6
		c0-1.3,0.2-2.4,0.7-3.3c0.5-0.9,1.1-1.7,2-2.2c0.9-0.5,1.9-0.8,3.1-0.8c1.2,0,2.4,0.3,3.4,0.8l-0.7,1.7c-0.4-0.2-0.8-0.4-1.3-0.5
		C125.5,1.8,125,1.7,124.5,1.7z"/>
	<path class="st1" d="M140.9,6.2c0,2-0.5,3.5-1.5,4.6c-1,1.1-2.4,1.6-4.2,1.6c-1.8,0-3.2-0.5-4.2-1.6c-1-1.1-1.5-2.6-1.5-4.6
		c0-2,0.5-3.5,1.5-4.6c1-1.1,2.4-1.6,4.2-1.6c1.8,0,3.2,0.5,4.2,1.6C140.4,2.7,140.9,4.3,140.9,6.2z M131.6,6.2
		c0,1.5,0.3,2.6,0.9,3.4c0.6,0.8,1.5,1.2,2.7,1.2c1.2,0,2.1-0.4,2.7-1.1c0.6-0.8,0.9-1.9,0.9-3.4c0-1.5-0.3-2.6-0.9-3.4
		c-0.6-0.8-1.5-1.2-2.7-1.2c-1.2,0-2.1,0.4-2.7,1.2C131.9,3.6,131.6,4.8,131.6,6.2z"/>
	<path class="st1" d="M148.7,12.3l-3.5-10.1h-0.1c0.1,1.5,0.1,2.9,0.1,4.2v5.9h-1.8V0.2h2.8l3.4,9.7h0l3.5-9.7h2.8v12.1h-1.9v-6
		c0-0.6,0-1.4,0-2.4c0-1,0.1-1.6,0.1-1.8h-0.1l-3.6,10.1H148.7z"/>
	<path class="st1" d="M164.4,12.3l-3.5-10.1h-0.1c0.1,1.5,0.1,2.9,0.1,4.2v5.9h-1.8V0.2h2.8l3.4,9.7h0l3.5-9.7h2.8v12.1h-1.9v-6
		c0-0.6,0-1.4,0-2.4c0-1,0.1-1.6,0.1-1.8h-0.1l-3.6,10.1H164.4z"/>
	<path class="st1" d="M174.9,12.3V0.2h2v12.1H174.9z"/>
	<path class="st1" d="M184.3,12.3h-2V1.9h-3.6V0.2h9.1v1.7h-3.6V12.3z"/>
	<path class="st1" d="M193.9,12.3h-2V1.9h-3.6V0.2h9.1v1.7h-3.6V12.3z"/>
	<path class="st1" d="M206.2,12.3h-6.9V0.2h6.9v1.7h-4.9v3.3h4.6v1.7h-4.6v3.8h4.9V12.3z"/>
	<path class="st1" d="M215.7,12.3h-6.9V0.2h6.9v1.7h-4.9v3.3h4.6v1.7h-4.6v3.8h4.9V12.3z"/>
	<path class="st1" d="M226.9,12.3h-2V1.9h-3.6V0.2h9.1v1.7h-3.6V12.3z"/>
	<path class="st1" d="M243.1,6.2c0,2-0.5,3.5-1.5,4.6c-1,1.1-2.4,1.6-4.2,1.6c-1.8,0-3.2-0.5-4.2-1.6c-1-1.1-1.5-2.6-1.5-4.6
		c0-2,0.5-3.5,1.5-4.6c1-1.1,2.4-1.6,4.2-1.6c1.8,0,3.2,0.5,4.2,1.6C242.6,2.7,243.1,4.3,243.1,6.2z M233.8,6.2
		c0,1.5,0.3,2.6,0.9,3.4c0.6,0.8,1.5,1.2,2.7,1.2c1.2,0,2.1-0.4,2.7-1.1c0.6-0.8,0.9-1.9,0.9-3.4c0-1.5-0.3-2.6-0.9-3.4
		c-0.6-0.8-1.5-1.2-2.7-1.2c-1.2,0-2.1,0.4-2.7,1.2C234.1,3.6,233.8,4.8,233.8,6.2z"/>
	<path class="st1" d="M252.1,7.5v4.8h-2V0.2h3.4c1.6,0,2.7,0.3,3.5,0.9c0.8,0.6,1.1,1.5,1.1,2.7c0,1.5-0.8,2.6-2.4,3.2l3.4,5.4H257
		l-2.9-4.8H252.1z M252.1,5.8h1.4c0.9,0,1.6-0.2,2-0.5c0.4-0.3,0.6-0.9,0.6-1.5c0-0.7-0.2-1.2-0.7-1.5c-0.4-0.3-1.1-0.4-2-0.4h-1.3
		V5.8z"/>
	<path class="st1" d="M267.8,12.3H261V0.2h6.9v1.7H263v3.3h4.6v1.7H263v3.8h4.9V12.3z"/>
	<path class="st1" d="M277.5,9c0,1.1-0.4,1.9-1.2,2.5c-0.8,0.6-1.9,0.9-3.2,0.9c-1.4,0-2.5-0.2-3.4-0.6V10c0.6,0.3,1.1,0.5,1.8,0.6
		c0.6,0.1,1.2,0.2,1.7,0.2c0.8,0,1.4-0.1,1.7-0.4c0.4-0.3,0.6-0.7,0.6-1.2c0-0.5-0.2-0.8-0.5-1.2c-0.3-0.3-1.1-0.7-2.1-1.1
		c-1.1-0.4-1.9-1-2.3-1.5c-0.5-0.6-0.7-1.3-0.7-2.1c0-1,0.4-1.8,1.1-2.4c0.7-0.6,1.7-0.9,2.9-0.9c1.2,0,2.3,0.3,3.5,0.8l-0.6,1.6
		c-1.1-0.5-2-0.7-2.9-0.7c-0.6,0-1.1,0.1-1.5,0.4c-0.3,0.3-0.5,0.6-0.5,1.1c0,0.3,0.1,0.6,0.2,0.8c0.1,0.2,0.4,0.4,0.7,0.6
		c0.3,0.2,0.9,0.5,1.6,0.8c0.9,0.4,1.5,0.7,2,1c0.4,0.3,0.7,0.7,0.9,1.1C277.4,8,277.5,8.5,277.5,9z"/>
	<path class="st1" d="M285,1.7c-1.1,0-2,0.4-2.7,1.2c-0.7,0.8-1,1.9-1,3.3c0,1.5,0.3,2.6,0.9,3.4c0.6,0.8,1.5,1.1,2.7,1.1
		c0.5,0,1-0.1,1.5-0.2c0.5-0.1,1-0.2,1.5-0.4V12c-1,0.4-2,0.5-3.2,0.5c-1.8,0-3.1-0.5-4.1-1.6c-1-1.1-1.4-2.6-1.4-4.6
		c0-1.3,0.2-2.4,0.7-3.3c0.5-0.9,1.1-1.7,2-2.2c0.9-0.5,1.9-0.8,3.1-0.8c1.2,0,2.4,0.3,3.4,0.8l-0.7,1.7c-0.4-0.2-0.8-0.4-1.3-0.5
		C286,1.8,285.5,1.7,285,1.7z"/>
	<path class="st1" d="M300.1,0.2V8c0,0.9-0.2,1.7-0.6,2.4c-0.4,0.7-0.9,1.2-1.7,1.6c-0.7,0.4-1.6,0.5-2.6,0.5
		c-1.5,0-2.7-0.4-3.5-1.2c-0.8-0.8-1.3-1.9-1.3-3.3V0.2h2v7.7c0,1,0.2,1.7,0.7,2.2c0.5,0.5,1.2,0.7,2.1,0.7c1.9,0,2.8-1,2.8-2.9V0.2
		H300.1z"/>
	<path class="st1" d="M310.1,12.3h-6.9V0.2h6.9v1.7h-4.9v3.3h4.6v1.7h-4.6v3.8h4.9V12.3z"/>
	<path class="st1" d="M317.1,12.3V0.2h2v12.1H317.1z"/>
	<path class="st1" d="M326.5,12.3h-2V1.9h-3.6V0.2h9.1v1.7h-3.6V12.3z"/>
	<path class="st1" d="M339.4,12.3L338.2,9h-4.6l-1.2,3.4h-2.1l4.5-12.2h2.2l4.5,12.2H339.4z M337.7,7.2l-1.1-3.3
		c-0.1-0.2-0.2-0.6-0.3-1c-0.1-0.5-0.2-0.8-0.3-1c-0.1,0.7-0.4,1.4-0.7,2.2l-1.1,3.2H337.7z"/>
	<path class="st1" d="M343.2,12.3V0.2h2v10.4h5.1v1.7H343.2z"/>
	<path class="st1" d="M352.4,12.3V0.2h2v12.1H352.4z"/>
	<path class="st1" d="M365.1,12.3L363.9,9h-4.6l-1.2,3.4H356l4.5-12.2h2.2l4.5,12.2H365.1z M363.4,7.2l-1.1-3.3
		c-0.1-0.2-0.2-0.6-0.3-1c-0.1-0.5-0.2-0.8-0.3-1c-0.1,0.7-0.4,1.4-0.7,2.2l-1.1,3.2H363.4z"/>
	<path class="st1" d="M378.9,12.3h-2.4l-6-9.7h-0.1l0,0.5c0.1,1,0.1,2,0.1,2.8v6.3h-1.8V0.2h2.4l6,9.6h0c0-0.1,0-0.6-0.1-1.4
		c0-0.8,0-1.4,0-1.9V0.2h1.8V12.3z"/>
	<path class="st1" d="M394.1,12.3L392.8,9h-4.6l-1.2,3.4h-2.1l4.5-12.2h2.2l4.5,12.2H394.1z M392.3,7.2l-1.1-3.3
		c-0.1-0.2-0.2-0.6-0.3-1c-0.1-0.5-0.2-0.8-0.3-1c-0.1,0.7-0.4,1.4-0.7,2.2l-1.1,3.2H392.3z"/>
	<path class="st1" d="M399.8,7.5v4.8h-2V0.2h3.4c1.6,0,2.7,0.3,3.5,0.9c0.8,0.6,1.1,1.5,1.1,2.7c0,1.5-0.8,2.6-2.4,3.2l3.4,5.4h-2.3
		l-2.9-4.8H399.8z M399.8,5.8h1.4c0.9,0,1.6-0.2,2-0.5c0.4-0.3,0.6-0.9,0.6-1.5c0-0.7-0.2-1.2-0.7-1.5c-0.4-0.3-1.1-0.4-2-0.4h-1.3
		V5.8z"/>
	<path class="st1" d="M412.8,12.3h-2V1.9h-3.6V0.2h9.1v1.7h-3.6V12.3z"/>
</g>
<path class="st2" d="M140.2,27.2v4.7h-2.6V19.7h3.5c1.6,0,2.9,0.3,3.7,0.9c0.8,0.6,1.2,1.5,1.2,2.7c0,0.7-0.2,1.3-0.6,1.9
	c-0.4,0.6-0.9,1-1.7,1.3c1.8,2.7,3,4.5,3.6,5.3h-2.9l-2.9-4.7H140.2z M140.2,25.1h0.8c0.8,0,1.4-0.1,1.8-0.4
	c0.4-0.3,0.6-0.7,0.6-1.3c0-0.6-0.2-1-0.6-1.2s-1-0.4-1.8-0.4h-0.8V25.1z"/>
<path class="st2" d="M155.8,31.8h-7V19.7h7v2.1h-4.4v2.7h4.1v2.1h-4.1v3.1h4.4V31.8z"/>
<path class="st2" d="M165.5,28.5c0,1.1-0.4,2-1.2,2.6c-0.8,0.6-1.9,0.9-3.3,0.9c-1.3,0-2.4-0.2-3.4-0.7v-2.4
	c0.8,0.4,1.5,0.6,2.1,0.8c0.6,0.2,1.1,0.2,1.6,0.2c0.6,0,1-0.1,1.3-0.3c0.3-0.2,0.5-0.5,0.5-1c0-0.2-0.1-0.4-0.2-0.6
	c-0.1-0.2-0.3-0.4-0.6-0.5c-0.3-0.2-0.8-0.4-1.6-0.8c-0.7-0.3-1.3-0.7-1.7-1c-0.4-0.3-0.7-0.7-0.9-1.1c-0.2-0.4-0.3-0.9-0.3-1.5
	c0-1.1,0.4-1.9,1.1-2.5c0.7-0.6,1.7-0.9,3-0.9c0.6,0,1.2,0.1,1.8,0.2c0.6,0.1,1.2,0.4,1.8,0.6l-0.8,2c-0.6-0.3-1.2-0.5-1.6-0.6
	c-0.4-0.1-0.8-0.2-1.2-0.2c-0.5,0-0.9,0.1-1.1,0.3c-0.3,0.2-0.4,0.5-0.4,0.9c0,0.2,0.1,0.4,0.2,0.6c0.1,0.2,0.3,0.3,0.5,0.5
	c0.2,0.2,0.8,0.4,1.6,0.9c1.1,0.5,1.9,1.1,2.3,1.6C165.3,27,165.5,27.7,165.5,28.5z"/>
<path class="st2" d="M172.9,21.7c-1,0-1.7,0.4-2.2,1.1c-0.5,0.7-0.8,1.7-0.8,3c0,2.7,1,4.1,3,4.1c0.9,0,1.9-0.2,3.1-0.6v2.2
	c-1,0.4-2.1,0.6-3.3,0.6c-1.8,0-3.1-0.5-4.1-1.6c-0.9-1.1-1.4-2.6-1.4-4.6c0-1.3,0.2-2.4,0.7-3.3c0.5-0.9,1.1-1.7,2-2.2
	c0.9-0.5,1.9-0.8,3-0.8c1.2,0,2.4,0.3,3.6,0.9l-0.8,2.1c-0.5-0.2-0.9-0.4-1.4-0.6C173.8,21.7,173.3,21.7,172.9,21.7z"/>
<path class="st2" d="M188.4,19.7v7.9c0,0.9-0.2,1.7-0.6,2.4c-0.4,0.7-1,1.2-1.7,1.6c-0.8,0.4-1.7,0.5-2.7,0.5
	c-1.6,0-2.8-0.4-3.6-1.2c-0.9-0.8-1.3-1.9-1.3-3.3v-7.8h2.6v7.4c0,0.9,0.2,1.6,0.6,2.1c0.4,0.4,1,0.7,1.9,0.7c0.8,0,1.5-0.2,1.8-0.7
	c0.4-0.4,0.6-1.1,0.6-2.1v-7.4H188.4z"/>
<path class="st2" d="M198.4,31.8h-7V19.7h7v2.1H194v2.7h4.1v2.1H194v3.1h4.4V31.8z"/>
<path class="st2" d="M206.9,31.9V19.8h2.6v12.1H206.9z"/>
<path class="st2" d="M217.2,31.9h-2.6v-10h-3.3v-2.1h9.2v2.1h-3.3V31.9z"/>
<path class="st2" d="M115.3,32.3h-2.6v-10h-3.3v-2.1h9.2v2.1h-3.3V32.3z"/>
<path class="st2" d="M229.8,31.9L229,29h-4.4l-0.9,2.9h-2.8l4.3-12.2h3.1l4.3,12.2H229.8z M228.3,26.9c-0.8-2.6-1.3-4.1-1.4-4.4
	c-0.1-0.3-0.2-0.6-0.2-0.8c-0.2,0.7-0.7,2.5-1.6,5.3H228.3z"/>
<path class="st2" d="M234.1,31.9V19.8h2.6v10h4.9v2.1H234.1z"/>
<path class="st2" d="M243.7,31.9V19.8h2.6v12.1H243.7z"/>
<path class="st2" d="M256.8,31.9l-0.9-2.9h-4.4l-0.9,2.9h-2.8l4.3-12.2h3.1l4.3,12.2H256.8z M255.3,26.9c-0.8-2.6-1.3-4.1-1.4-4.4
	c-0.1-0.3-0.2-0.6-0.2-0.8c-0.2,0.7-0.7,2.5-1.6,5.3H255.3z"/>
<path class="st2" d="M271.9,31.9h-3.3l-5.3-9.2h-0.1c0.1,1.6,0.2,2.8,0.2,3.5v5.7h-2.3V19.8h3.2l5.3,9.1h0.1
	c-0.1-1.6-0.1-2.7-0.1-3.3v-5.7h2.3V31.9z"/>
<path class="st2" d="M287.4,32.3l-0.9-2.9h-4.4l-0.9,2.9h-2.8l4.3-12.2h3.1l4.3,12.2H287.4z M285.9,27.2c-0.8-2.6-1.3-4.1-1.4-4.4
	c-0.1-0.3-0.2-0.6-0.2-0.8c-0.2,0.7-0.7,2.5-1.6,5.3H285.9z"/>
<path class="st2" d="M294.3,27.6v4.7h-2.6V20.1h3.5c1.6,0,2.9,0.3,3.7,0.9c0.8,0.6,1.2,1.5,1.2,2.7c0,0.7-0.2,1.3-0.6,1.9
	c-0.4,0.6-0.9,1-1.7,1.3c1.8,2.7,3,4.5,3.6,5.3h-2.9l-2.9-4.7H294.3z M294.3,25.5h0.8c0.8,0,1.4-0.1,1.8-0.4
	c0.4-0.3,0.6-0.7,0.6-1.3c0-0.6-0.2-1-0.6-1.2c-0.4-0.2-1-0.4-1.8-0.4h-0.8V25.5z"/>
<path class="st2" d="M307.6,32.3H305v-10h-3.3v-2.1h9.2v2.1h-3.3V32.3z"/>
<path class="st2" d="M9.4,22.2c-1,0-1.7,0.4-2.3,1.1c-0.5,0.7-0.8,1.7-0.8,3c0,2.7,1,4.1,3,4.1c0.9,0,1.9-0.2,3.1-0.6v2.2
	c-1,0.4-2.1,0.6-3.3,0.6c-1.8,0-3.1-0.5-4.1-1.6c-0.9-1.1-1.4-2.6-1.4-4.6C3.7,25,4,23.9,4.4,23c0.5-0.9,1.1-1.7,2-2.2
	c0.9-0.5,1.9-0.8,3-0.8c1.2,0,2.4,0.3,3.6,0.9L12.1,23c-0.5-0.2-0.9-0.4-1.4-0.6C10.3,22.2,9.9,22.2,9.4,22.2z"/>
<path class="st2" d="M26.1,26.2c0,2-0.5,3.6-1.5,4.6c-1,1.1-2.4,1.6-4.3,1.6c-1.9,0-3.3-0.5-4.3-1.6c-1-1.1-1.5-2.6-1.5-4.6
	s0.5-3.6,1.5-4.6c1-1.1,2.4-1.6,4.3-1.6c1.9,0,3.3,0.5,4.3,1.6C25.6,22.7,26.1,24.2,26.1,26.2z M17.3,26.2c0,1.4,0.3,2.4,0.8,3.1
	c0.5,0.7,1.3,1,2.3,1c2.1,0,3.1-1.4,3.1-4.1c0-2.7-1-4.1-3.1-4.1c-1,0-1.8,0.3-2.3,1C17.5,23.9,17.3,24.9,17.3,26.2z"/>
<path class="st2" d="M130.8,26.2c0,2-0.5,3.6-1.5,4.6c-1,1.1-2.4,1.6-4.3,1.6c-1.9,0-3.3-0.5-4.3-1.6c-1-1.1-1.5-2.6-1.5-4.6
	s0.5-3.6,1.5-4.6c1-1.1,2.4-1.6,4.3-1.6c1.9,0,3.3,0.5,4.3,1.6C130.4,22.6,130.8,24.2,130.8,26.2z M122,26.2c0,1.4,0.3,2.4,0.8,3.1
	c0.5,0.7,1.3,1,2.3,1c2.1,0,3.1-1.4,3.1-4.1c0-2.7-1-4.1-3.1-4.1c-1,0-1.8,0.3-2.3,1C122.2,23.8,122,24.8,122,26.2z"/>
<path class="st2" d="M33.8,32.3l-2.9-9.5h-0.1c0.1,1.9,0.2,3.2,0.2,3.9v5.6h-2.3V20.2h3.5l2.9,9.3h0l3-9.3h3.5v12.1h-2.4v-5.7
	c0-0.3,0-0.6,0-0.9c0-0.4,0-1.3,0.1-2.8h-0.1l-3.1,9.5H33.8z"/>
<path class="st2" d="M49.8,32.3l-2.9-9.5h-0.1c0.1,1.9,0.2,3.2,0.2,3.9v5.6h-2.3V20.2h3.5l2.9,9.3h0l3-9.3h3.5v12.1h-2.4v-5.7
	c0-0.3,0-0.6,0-0.9c0-0.4,0-1.3,0.1-2.8h-0.1l-3.1,9.5H49.8z"/>
<path class="st2" d="M60.7,32.3V20.2h2.6v12.1H60.7z"/>
<path class="st2" d="M71,32.3h-2.6v-10h-3.3v-2.1h9.2v2.1H71V32.3z"/>
<path class="st2" d="M80.8,32.3h-2.6v-10H75v-2.1h9.2v2.1h-3.3V32.3z"/>
<path class="st2" d="M93,32.3h-7V20.2h7v2.1h-4.4V25h4.1v2.1h-4.1v3.1H93V32.3z"/>
<path class="st2" d="M102.5,32.3h-7V20.2h7v2.1h-4.4V25h4.1v2.1h-4.1v3.1h4.4V32.3z"/>
</svg>
