<svg id="Livello_1" data-name="Livello 1" xmlns="http://www.w3.org/2000/svg" viewBox="0 0 302.18 70.64"><defs><style>.cls-1{fill:#e91d26;}</style></defs><title>cria logo one line minuscolo</title><path class="cls-1" d="M113.8,30.86a4.49,4.49,0,0,0,.71-.05,4.55,4.55,0,0,0,.54-.11v1.05a2.53,2.53,0,0,1-.66.18,5,5,0,0,1-.78.07Q111,32,111,29.21V23.8h-1.3v-.66l1.3-.57.58-1.94h.8v2.11H115V23.8h-2.64v5.35a1.84,1.84,0,0,0,.39,1.26A1.36,1.36,0,0,0,113.8,30.86Z" transform="translate(-3.72 -13.09)"/><path class="cls-1" d="M124.72,27.27a5,5,0,0,1-1.12,3.47A4,4,0,0,1,120.5,32a4.11,4.11,0,0,1-2.17-.57,3.79,3.79,0,0,1-1.46-1.64,5.73,5.73,0,0,1-.51-2.51,5,5,0,0,1,1.11-3.47,3.94,3.94,0,0,1,3.09-1.24,3.85,3.85,0,0,1,3,1.27A5,5,0,0,1,124.72,27.27Zm-6.93,0a4.32,4.32,0,0,0,.7,2.66,2.77,2.77,0,0,0,4.11,0,4.3,4.3,0,0,0,.7-2.66,4.23,4.23,0,0,0-.7-2.64,2.47,2.47,0,0,0-2.07-.9,2.43,2.43,0,0,0-2,.89A4.27,4.27,0,0,0,117.78,27.27Z" transform="translate(-3.72 -13.09)"/><path class="cls-1" d="M134.19,27.17v4.66h-2.57V19.69h3.54a6.05,6.05,0,0,1,3.66.9A3.22,3.22,0,0,1,140,23.33a3.22,3.22,0,0,1-.59,1.91,3.91,3.91,0,0,1-1.67,1.31q2.74,4.09,3.57,5.29h-2.86l-2.9-4.66Zm0-2.09H135a3.18,3.18,0,0,0,1.8-.41,1.45,1.45,0,0,0,.58-1.28,1.33,1.33,0,0,0-.59-1.23A3.6,3.6,0,0,0,135,21.8h-.78Z" transform="translate(-3.72 -13.09)"/><path class="cls-1" d="M149.83,31.83h-7V19.69h7V21.8h-4.42v2.66h4.11v2.11h-4.11V29.7h4.42Z" transform="translate(-3.72 -13.09)"/><path class="cls-1" d="M159.52,28.46A3.14,3.14,0,0,1,158.34,31,5.14,5.14,0,0,1,155,32a7.74,7.74,0,0,1-3.44-.73V28.87a14,14,0,0,0,2.08.77,6.11,6.11,0,0,0,1.56.22,2.2,2.2,0,0,0,1.3-.32,1.1,1.1,0,0,0,.45-1,1.06,1.06,0,0,0-.2-.63,2.22,2.22,0,0,0-.59-.54,15,15,0,0,0-1.57-.82,7.43,7.43,0,0,1-1.67-1,3.76,3.76,0,0,1-.89-1.12,3.2,3.2,0,0,1-.33-1.49,3.14,3.14,0,0,1,1.09-2.53,4.54,4.54,0,0,1,3-.92,7.13,7.13,0,0,1,1.81.22,12.41,12.41,0,0,1,1.8.63l-.83,2a12,12,0,0,0-1.61-.56,5.2,5.2,0,0,0-1.25-.16,1.66,1.66,0,0,0-1.12.34,1.12,1.12,0,0,0-.39.89,1.1,1.1,0,0,0,.16.59,1.74,1.74,0,0,0,.5.49,15.67,15.67,0,0,0,1.63.85,6.5,6.5,0,0,1,2.33,1.63A3.18,3.18,0,0,1,159.52,28.46Z" transform="translate(-3.72 -13.09)"/><path class="cls-1" d="M166.88,21.66a2.62,2.62,0,0,0-2.25,1.09,5.08,5.08,0,0,0-.8,3q0,4.06,3,4.06a9.62,9.62,0,0,0,3.1-.64v2.16a8.58,8.58,0,0,1-3.34.62,5.09,5.09,0,0,1-4.05-1.61,6.8,6.8,0,0,1-1.4-4.61,7.52,7.52,0,0,1,.69-3.32,5,5,0,0,1,2-2.18,5.86,5.86,0,0,1,3-.76,8.16,8.16,0,0,1,3.55.86l-.83,2.09a13.62,13.62,0,0,0-1.37-.56A4.09,4.09,0,0,0,166.88,21.66Z" transform="translate(-3.72 -13.09)"/><path class="cls-1" d="M182.43,19.69v7.85a4.53,4.53,0,0,1-.6,2.36,3.92,3.92,0,0,1-1.74,1.55,6.22,6.22,0,0,1-2.69.54,5.15,5.15,0,0,1-3.64-1.2,4.26,4.26,0,0,1-1.29-3.28V19.69H175v7.43a3.11,3.11,0,0,0,.56,2.06,2.35,2.35,0,0,0,1.87.66,2.29,2.29,0,0,0,1.83-.66,3.12,3.12,0,0,0,.57-2.07V19.69Z" transform="translate(-3.72 -13.09)"/><path class="cls-1" d="M192.39,31.83h-7V19.69h7V21.8H188v2.66h4.11v2.11H188V29.7h4.42Z" transform="translate(-3.72 -13.09)"/><path class="cls-1" d="M200.93,31.94V19.8h2.57V31.94Z" transform="translate(-3.72 -13.09)"/><path class="cls-1" d="M211.24,31.94h-2.57v-10h-3.29V19.8h9.16v2.14h-3.3Z" transform="translate(-3.72 -13.09)"/><path class="cls-1" d="M223.83,31.94,223,29h-4.42l-.88,2.89h-2.77l4.28-12.19h3.15l4.3,12.19Zm-1.49-5Q221.12,23,221,22.45t-.22-.81q-.27,1.06-1.57,5.25Z" transform="translate(-3.72 -13.09)"/><path class="cls-1" d="M228.13,31.94V19.8h2.57v10h4.92v2.13Z" transform="translate(-3.72 -13.09)"/><path class="cls-1" d="M237.73,31.94V19.8h2.57V31.94Z" transform="translate(-3.72 -13.09)"/><path class="cls-1" d="M250.79,31.94,249.91,29h-4.42l-.88,2.89h-2.77l4.28-12.19h3.15l4.3,12.19Zm-1.49-5q-1.22-3.93-1.37-4.44t-.22-.81q-.27,1.06-1.57,5.25Z" transform="translate(-3.72 -13.09)"/><path class="cls-1" d="M265.86,31.94h-3.27l-5.28-9.18h-.07q.16,2.43.16,3.47v5.71h-2.3V19.8h3.25l5.27,9.09h.06q-.12-2.36-.12-3.34V19.8h2.32Z" transform="translate(-3.72 -13.09)"/><path class="cls-1" d="M282.4,32.27l-.88-2.89H277.1l-.88,2.89h-2.77l4.28-12.19h3.15l4.3,12.19Zm-1.49-5q-1.22-3.93-1.37-4.44t-.22-.81Q279,23,277.74,27.22Z" transform="translate(-3.72 -13.09)"/><path class="cls-1" d="M289.27,27.61v4.66H286.7V20.13h3.54a6.05,6.05,0,0,1,3.66.9,3.21,3.21,0,0,1,1.19,2.74,3.22,3.22,0,0,1-.59,1.91A3.91,3.91,0,0,1,292.83,27q2.74,4.09,3.57,5.29h-2.86l-2.9-4.66Zm0-2.09h.83a3.18,3.18,0,0,0,1.8-.41,1.45,1.45,0,0,0,.58-1.28,1.33,1.33,0,0,0-.59-1.23,3.6,3.6,0,0,0-1.84-.37h-.78Z" transform="translate(-3.72 -13.09)"/><path class="cls-1" d="M302.61,32.27H300v-10h-3.3V20.13h9.16v2.14h-3.29Z" transform="translate(-3.72 -13.09)"/><path class="cls-1" d="M9.42,22.16a2.62,2.62,0,0,0-2.25,1.09,5.08,5.08,0,0,0-.8,3q0,4.06,3,4.06a9.62,9.62,0,0,0,3.1-.64v2.16a8.58,8.58,0,0,1-3.34.62,5.09,5.09,0,0,1-4.05-1.61,6.8,6.8,0,0,1-1.4-4.61A7.53,7.53,0,0,1,4.41,23a5,5,0,0,1,2-2.18,5.86,5.86,0,0,1,3-.76,8.17,8.17,0,0,1,3.55.86L12.14,23a13.75,13.75,0,0,0-1.37-.56A4.08,4.08,0,0,0,9.42,22.16Z" transform="translate(-3.72 -13.09)"/><path class="cls-1" d="M26.11,26.24a6.58,6.58,0,0,1-1.49,4.63,5.54,5.54,0,0,1-4.28,1.62A5.54,5.54,0,0,1,16,30.88a6.61,6.61,0,0,1-1.49-4.65,6.52,6.52,0,0,1,1.5-4.63A5.6,5.6,0,0,1,20.35,20a5.52,5.52,0,0,1,4.28,1.61A6.6,6.6,0,0,1,26.11,26.24Zm-8.86,0A5.07,5.07,0,0,0,18,29.31a2.7,2.7,0,0,0,2.31,1q3.08,0,3.08-4.09t-3.06-4.1a2.72,2.72,0,0,0-2.32,1A5,5,0,0,0,17.25,26.24Z" transform="translate(-3.72 -13.09)"/><path class="cls-1" d="M33.76,32.33l-2.92-9.52h-.07q.16,2.91.16,3.88v5.64h-2.3V20.19h3.5L35,29.47h0l3-9.28h3.5V32.33H39.2V26.58q0-.41,0-.94t.11-2.82h-.07l-3.13,9.5Z" transform="translate(-3.72 -13.09)"/><path class="cls-1" d="M49.79,32.33l-2.92-9.52h-.08q.16,2.91.16,3.88v5.64h-2.3V20.19h3.5L51,29.47h0l3-9.28h3.5V32.33h-2.4V26.58q0-.41,0-.94t.11-2.82h-.08l-3.13,9.5Z" transform="translate(-3.72 -13.09)"/><path class="cls-1" d="M60.68,32.33V20.19h2.57V32.33Z" transform="translate(-3.72 -13.09)"/><path class="cls-1" d="M71,32.33H68.42v-10h-3.3V20.19h9.16v2.14H71Z" transform="translate(-3.72 -13.09)"/><path class="cls-1" d="M80.84,32.33H78.26v-10H75V20.19h9.16v2.14H80.84Z" transform="translate(-3.72 -13.09)"/><path class="cls-1" d="M93,32.33H86V20.19h7V22.3H88.57V25h4.11v2.11H88.57V30.2H93Z" transform="translate(-3.72 -13.09)"/><path class="cls-1" d="M102.51,32.33h-7V20.19h7V22.3H98.09V25h4.11v2.11H98.09V30.2h4.42Z" transform="translate(-3.72 -13.09)"/><text x="-3.72" y="-13.09"></text><text x="-3.72" y="-13.09"></text></svg>